/* XPM */
static const char *gb_icon_xpm[] = {
"32 32 2 1",
" 	c None",
".	c #00FF00",
"                                ",
"                                ",
"                                ",
"                                ",
"                                ",
"                                ",
"                                ",
"      .......     ........      ",
"     .........    .........     ",
"    ...      .    ..     ...    ",
"   ...            ..      ..    ",
"   ..             ..      ..    ",
"  ..              ..     ..     ",
"  ..              ........      ",
"  ..      .....   .........     ",
"  ..      .....   ..     ...    ",
"  ..         ..   ..      ..    ",
"   ..        ..   ..      ..    ",
"   ..        ..   ..      ..    ",
"    ...     ...   ..     ...    ",
"     .........    .........     ",
"      ......      ........      ",
"                                ",
"                                ",
"                                ",
"                                ",
"                                ",
"                                ",
"                                ",
"                                ",
"                                ",
"                                "
};
